# xmcd
# 
# Track frame offsets:
#     150
#     21010
#     35343
#     51106
#     66418
#     83425
#     101660
#     118724
#     132682
#     149800
#     167998
#     183262
#     199044
#     217044
#     234256
#     254574
#     269114
# 
# Disc length: 3804
# 
# Revision: 2
# Processed by: cddbd v1.5.2PL0 Copyright (c) Steve Scherf et al.
# Submitted via: fre:ac v1.0.17
# 
DISCID=080eda11
DTITLE=Reginaldo Rossi - Cabaret do Rossi
DYEAR=2010
DGENRE=Country
TTITLE0=Bregatom/Boate Azul
TTITLE1=Taras e Manias
TTITLE2=Senha
TTITLE3=Só Você
TTITLE4=O Cara Errado
TTITLE5=Aceito Tudo de Você
TTITLE6=Amor I Love You
TTITLE7=Se Meu Amor Não Chegar
TTITLE8=Dama de Vermelho
TTITLE9=Você Vai Ver
TTITLE10=Volta
TTITLE11=Não Dá Pra Voltar
TTITLE12=Leviana
TTITLE13=Vidro Fumê
TTITLE14=Na Hora do Adeus
TTITLE15=Meu Fracasso
TTITLE16=Ombro Amigo
EXTD=YEAR: 2010
EXTT0=
EXTT1=
EXTT2=
EXTT3=
EXTT4=
EXTT5=
EXTT6=
EXTT7=
EXTT8=
EXTT9=
EXTT10=
EXTT11=
EXTT12=
EXTT13=
EXTT14=
EXTT15=
EXTT16=
PLAYORDER=
